<svg viewBox="0 0 167 40" xmlns="http://www.w3.org/2000/svg"><path d="m136.23636 6h25.52728a5.19342 5.19342 0 0 1 5.23636 5.14943v17.70114a5.19342 5.19342 0 0 1 -5.23636 5.14943h-25.52728a5.19342 5.19342 0 0 1 -5.23636-5.14943v-17.70114a5.19342 5.19342 0 0 1 5.23636-5.14943z" fill="#56aa1c" fill-rule="evenodd"/><path d="m159.85911 27.02h-.00394a1.48 1.48 0 0 1 -2.96007 0h-.00394l-.00394-14.032h.00788a1.48 1.48 0 0 1 2.96007 0zm-9.55132-15.512a1.48 1.48 0 0 0 -1.48 1.48c0 .01039.00288.02.00307.0304v9.08344a3.86139 3.86139 0 0 1 -7.72205 0v-9.11384h-.00876l.00081-.00794a1.48 1.48 0 1 0 -2.96 0l.00082.00794h-.00082v9.378c0 3.62537 2.62372 6.134 6.82347 6.134 4.21176 0 6.82346-2.50864 6.82346-6.134v-9.378a1.48 1.48 0 0 0 -1.48-1.48006z" fill="#fff"/><path d="m47.95144 9.37081a2.29041 2.29041 0 1 1 2.28188 2.2651 2.27 2.27 0 0 1 -2.28188-2.2651zm.21812 4.94966h4.17785v17.78523h-4.17785zm13.28859 17.78523v-20.5537h-7.24832v-3.6577h18.792v3.6577h-7.2316v20.5537zm31.10738 0h-4.396l-3.50668-13.00335h-.08385l-3.49 13.00335h-4.36239l-4.81544-17.78523h4.19463l3.00336 13.65772h.08389l3.47316-13.65772h4.01006l3.47316 13.65772h.10067l3.00335-13.65772h4.12755zm6.77853-22.73489a2.2904 2.2904 0 1 1 2.28188 2.2651 2.27 2.27 0 0 1 -2.28188-2.2651zm.21812 4.94966h4.17782v17.78523h-4.17782zm7.68456 0h4.01007v3.05369h.08389a5.716 5.716 0 0 1 5.5873-3.38926c3.92618 0 6.15772 2.51678 6.15772 6.62752v11.49328h-4.17785v-10.65436c0-2.51678-1.1745-3.92617-3.55705-3.92617-2.39933 0-3.92618 1.72819-3.92618 4.27852v10.302h-4.17785z" fill="#002a44"/><path d="m17.5 1.42859a4.65743 4.65743 0 0 0 -2.37948.64735l-11.60712 6.90479a4.62885 4.62885 0 0 0 -2.2634 3.97043v14.09769a4.701 4.701 0 0 0 2.2634 3.9702l11.60712 6.905a4.69683 4.69683 0 0 0 4.759 0l11.60712-6.905a4.62843 4.62843 0 0 0 2.2634-3.9702v-14.15527a4.53472 4.53472 0 0 0 -2.2634-3.91285l-11.60717-6.90479a4.65742 4.65742 0 0 0 -2.37947-.64735z" fill="#fff"/><path d="m17.5 2.5a2.51043 2.51043 0 0 1 1.2844.34573l12.52649 7.45147a2.378 2.378 0 0 1 1.18911 2.04973v15.24415a2.50976 2.50976 0 0 1 -1.21565 2.127l-12.5 7.43618a2.55868 2.55868 0 0 1 -2.5687 0l-12.46133-7.4127a2.5796 2.5796 0 0 1 -1.25432-2.15048v-15.18215a2.51 2.51 0 0 1 1.2156-2.12719l12.5-7.43595a2.5104 2.5104 0 0 1 1.2844-.34579m0-2.5a5.01584 5.01584 0 0 0 -2.5625.69715l-12.5 7.43593a4.985 4.985 0 0 0 -2.4375 4.27585v15.18215a5.06266 5.06266 0 0 0 2.4375 4.2756l12.5 7.43617a5.058 5.058 0 0 0 5.125 0l12.5-7.43617a4.98454 4.98454 0 0 0 2.4375-4.2756v-15.24415a4.8836 4.8836 0 0 0 -2.4375-4.21384l-12.5-7.43593a5.01573 5.01573 0 0 0 -2.5625-.69716z" fill="#002a44"/><path d="m17.5 8.12453a2.6564 2.6564 0 1 1 -2.65625 2.65655v-.00015a2.65635 2.65635 0 0 1 2.65625-2.6564zm7.5 22.97465a.62513.62513 0 0 1 -.30525.537l-6.8125 4.05752a.62415.62415 0 0 1 -.6375.001l-6.9375-4.0967a.62486.62486 0 0 1 -.30725-.53832v-3.60218a.62477.62477 0 0 1 .9445-.537l4.0555 2.24663v-8.57623l-2.1945-1.3984a.625.625 0 0 1 -.3055-.5372v-3.61467a.625.625 0 0 1 .94575-.53653l6.25 3.45793a.62472.62472 0 0 1 .30425.53627v10.66883l4.0555-2.24665a.625.625 0 0 1 .9445.537z" fill="#53a21a"/><path d="m16.71887 39.37512a2.293 2.293 0 0 0 1.56225-2.34334v-16.091a3.36611 3.36611 0 0 1 1.71845-2.812c1.77008-1.05017 12.81043-7.49878 12.81043-7.49878a2.07318 2.07318 0 0 1 .7811-.15623.9867.9867 0 0 1 .9423 1.02919q-.00141.03225-.00495.06436v16.20818a3.9964 3.9964 0 0 1 -2.18722 3.7495c-2.474 1.4335-13.12277 7.694-13.12277 7.694a3.08629 3.08629 0 0 1 -2.49959.15612z" fill-rule="evenodd" opacity=".07"/><g fill="#fff"><path d="m17.35942 20.63046s-.38317 7.2-.0096 17.49224c0 0 .33823-6.66184.0096-17.49224zm-15.01309-10.15665a141.28194 141.28194 0 0 0 12.96654 7.4987s-4.75005-3.18183-12.96654-7.4987z" fill-rule="evenodd" opacity=".3"/><path d="m32.56 8.13873-12.4979-7.43482a5.0571 5.0571 0 0 0 -5.1242 0l-12.4979 7.43482a4.87383 4.87383 0 0 0 -2.0346 2.43027c1.2848-1.13525 2.0259-.65018 2.0259-.65018l12.4979 7.4347a5.05612 5.05612 0 0 0 5.124 0l12.49787-7.4347a1.45078 1.45078 0 0 1 2.13347.8675l.00015-.04362a4.86673 4.86673 0 0 0 -2.12469-2.60397z" opacity=".15"/><path d="m5.31457 13.12958-5.31157 5.3116v7.9675l16.872-5.93657s.28062-.6771-1.71835-1.8746z" fill-rule="evenodd" opacity=".06"/></g></svg>