<svg
  width='155.167'
  height='31.92'
  xmlns="http://www.w3.org/2000/svg"
  viewBox="0 0 155.167 31.92"
  fill='#242424'
>
  <path
    d="M42 7.51c0 1-.8 1.8-1.8 1.8-.5 0-.9-.2-1.3-.5-.3-.4-.5-.8-.5-1.3 0-1 .8-1.8 1.8-1.8s1.8.8 1.8 1.8Zm-3.5 18.2h3.3v-14.2h-3.3v14.2ZM26.9 7.06 15.48.37C15.07.13 14.6 0 14.13 0c-.47 0-.94.13-1.36.37L1.38 7.05A2.8 2.8 0 0 0 0 9.45v13.39c0 .64.22 1.25.61 1.73.21.27.46.49.76.67l.29.17.68.4 5.47 3.23h.01c.18.08.38.12.58.12.56 0 1.06-.31 1.34-.8.31-.55.26-1.21-.09-1.7-.08-.13-.18-.24-.3-.34l-.18-.12-5.66-3.31-.29-.17a.272.272 0 0 1-.12-.21L3.08 9.82c0-.08.04-.16.12-.21l10.77-6.34c.03-.03.08-.04.13-.04.04 0 .09.01.13.04l10.8 6.3c.07.05.12.13.12.22l.02 12.67c0 .09-.04.17-.12.21l-9.37 5.55v-9.89c0-.96-.51-1.85-1.33-2.34l-2.15-1.3a1.542 1.542 0 0 0-2.13.55c-.44.74-.2 1.7.54 2.15l1.84 1.08c.08.05.13.14.13.22v10.86a2.342 2.342 0 0 0 2.32 2.37c.4 0 .81-.11 1.18-.32l10.82-6.38c.84-.49 1.36-1.39 1.36-2.35V9.43c0-.97-.52-1.87-1.36-2.37Zm-12.774 5.818c1.124 0 2.04-.925 2.04-2.061 0-1.137-.916-2.062-2.04-2.062-1.125 0-2.04.925-2.04 2.062 0 1.136.915 2.06 2.04 2.06ZM58.4 6.31h-15v2.9h5.8v16.4h3.4V9.21h5.8v-2.9Zm75.2 2.6v14.2c0 2.3-1.9 4.1-4.2 4.1H109c-2.3 0-4.2-1.8-4.2-4.1V8.91c0-2.3 1.9-4.1 4.2-4.1h20.4c2.3 0 4.2 1.8 4.2 4.1Zm-12.2 1.5c0-.7-.5-1.2-1.2-1.2s-1.2.5-1.2 1.2v7.3c0 1.7-1.4 3.1-3.1 3.1s-3.1-1.4-3.1-3.1v-7.3c0-.7-.5-1.2-1.2-1.2s-1.2.5-1.2 1.2v7.5c0 2.9 2.1 4.9 5.5 4.9s5.5-2 5.5-4.9v-7.5Zm6.5 0c0-.7-.5-1.2-1.2-1.2s-1.2.5-1.2 1.2v11.2c0 .7.5 1.2 1.2 1.2s1.2-.5 1.2-1.2v-11.2Zm-55.6 12h-.1l-2.8-10.9h-3.2l-2.8 10.9h-.1l-2.4-10.9h-3.4l3.9 14.2h3.5l2.8-10.4h.1l2.8 10.4h3.5l3.9-14.2h-3.3l-2.4 10.9Zm21.3-11.2c-1.9-.1-3.7.9-4.5 2.7H89v-2.4h-3.2l.1 14.2h3.3v-8.6c.1-1.7 1.5-3 3.2-3 1.9 0 2.8 1.1 2.8 3.1v8.5h3.3v-9.2c0-3.3-1.8-5.3-4.9-5.3Zm-12.3-5.5c-1 0-1.8.8-1.8 1.8 0 .5.2.9.5 1.3.4.3.8.5 1.3.5 1 0 1.8-.8 1.8-1.8s-.8-1.8-1.8-1.8Zm-1.6 20H83v-14.2h-3.4l.1 14.2Zm58.171-20.247c-.032-.182 0-.328.096-.44.095-.113.245-.168.448-.168h.56c.309 0 .48.144.512.432l1.2 7.552c.02.149.04.317.056.504s.03.355.04.503c.01.193.02.374.031.545h.033l.24-.545c.074-.148.154-.316.24-.503.085-.187.17-.355.256-.504l4.143-7.552a.71.71 0 0 1 .689-.432h.672c.202 0 .33.055.384.168.053.112.032.258-.064.44l-5.76 10.255c-.15.289-.379.433-.688.433h-.817c-.298 0-.468-.144-.511-.433l-1.76-10.255Zm8.608 10.111c0-.447.115-.89.344-1.327s.493-.827.792-1.168c.33-.374.704-.713 1.12-1.016.416-.304.842-.593 1.28-.865l1.28-.792c.416-.255.787-.522 1.112-.8s.586-.573.784-.887a1.96 1.96 0 0 0 .296-1.064c0-.47-.155-.837-.464-1.104-.31-.267-.725-.4-1.248-.4-.266 0-.514.037-.744.111-.23.075-.44.168-.632.28a4.473 4.473 0 0 0-.88.665c-.14.117-.27.186-.392.208s-.242-.027-.36-.144l-.24-.24c-.277-.256-.305-.501-.08-.736a8.49 8.49 0 0 1 .544-.489c.224-.186.482-.365.776-.535.293-.17.624-.315.992-.432.368-.118.77-.176 1.208-.176.47 0 .901.066 1.296.2a3.01 3.01 0 0 1 1.016.567c.282.246.501.545.656.896.155.352.232.742.232 1.169 0 .65-.152 1.221-.456 1.712s-.69.936-1.16 1.336-.982.762-1.536 1.088c-.555.325-1.083.65-1.584.976a9.68 9.68 0 0 0-1.312 1.008c-.373.346-.608.733-.704 1.16h4.992c.18 0 .307.053.376.16s.088.25.056.431l-.064.32c-.043.31-.246.465-.608.465h-6.208c-.32 0-.48-.192-.48-.577Z"
    class="d"
  />
</svg>
